<?xml version="1.0" standalone="no"?>
<!DOCTYPE svg PUBLIC "-//W3C//DTD SVG 20010904//EN"
 "http://www.w3.org/TR/2001/REC-SVG-20010904/DTD/svg10.dtd">
<svg version="1.0" xmlns="http://www.w3.org/2000/svg"
 width="640.000000pt" height="640.000000pt" viewBox="0 0 640.000000 640.000000"
 preserveAspectRatio="xMidYMid meet">

<g transform="translate(0.000000,640.000000) scale(0.100000,-0.100000)"
fill="#000000" stroke="none">
<path d="M3700 5135 c0 -9 9 -15 24 -15 13 0 27 -6 29 -12 4 -10 6 -10 6 -1 1
12 -36 43 -51 43 -5 0 -8 -7 -8 -15z"/>
<path d="M3798 5091 c22 -13 11 -85 -13 -91 -11 -3 -21 -15 -23 -25 -2 -11 -9
-24 -14 -30 -8 -7 -9 -6 -4 3 4 7 1 12 -7 12 -11 0 -15 -19 -16 -81 -2 -78 -1
-81 18 -76 20 5 21 1 21 -79 0 -77 -2 -84 -20 -84 -13 0 -20 -7 -20 -20 0 -11
-4 -20 -10 -20 -5 0 -10 -4 -10 -9 0 -5 11 -8 25 -8 14 0 25 4 25 9 0 5 -4 6
-10 3 -5 -3 -10 1 -10 9 0 21 16 21 24 0 3 -9 6 -44 6 -78 0 -35 5 -67 12 -74
9 -9 9 -12 0 -12 -7 0 -12 -12 -12 -26 0 -14 4 -23 9 -19 5 3 12 1 15 -4 3 -5
-1 -11 -9 -15 -17 -6 -20 -41 -6 -51 6 -3 14 3 20 12 9 16 10 16 11 1 0 -9 5
-18 11 -20 7 -2 11 -33 11 -81 -1 -77 0 -80 39 -80 9 0 16 -6 16 -13 0 -10 -4
-11 -12 -4 -24 20 -36 -55 -13 -78 9 -9 9 -12 0 -12 -7 0 -12 -11 -12 -25 0
-22 4 -25 40 -25 l40 0 1 -77 c1 -43 1 -115 1 -160 -1 -46 3 -83 9 -83 5 0 9
6 9 13 0 8 4 7 10 -3 5 -8 10 -11 10 -5 0 5 5 4 11 -2 6 -6 11 -27 11 -47 0
-24 4 -34 12 -29 6 4 6 0 -2 -9 -10 -12 -10 -18 -1 -23 8 -6 7 -10 -2 -16 -11
-7 -11 -9 1 -9 13 0 13 -1 0 -11 -11 -8 -12 -12 -2 -16 15 -6 16 -43 1 -43 -6
0 -8 7 -5 16 3 8 2 12 -4 9 -6 -3 -10 -1 -10 4 0 6 -5 11 -11 11 -5 0 -7 -4
-4 -10 3 -5 0 -10 -9 -10 -13 0 -21 -45 -26 -144 -2 -34 19 -44 40 -18 10 12
20 27 22 32 3 8 32 17 64 19 7 1 25 13 42 29 16 15 60 43 96 62 36 19 66 41
66 48 0 7 4 11 9 7 5 -3 17 2 26 11 9 9 18 14 21 11 3 -3 17 6 31 19 14 13 34
24 44 24 10 0 22 7 26 15 5 8 26 24 48 35 22 11 33 20 25 20 -8 0 8 11 36 25
28 13 57 31 64 40 7 8 20 15 30 15 10 0 24 10 33 23 8 12 19 18 23 14 10 -10
-46 -58 -58 -51 -4 3 -8 1 -8 -4 0 -6 -44 -38 -97 -73 -54 -34 -100 -66 -103
-69 -3 -4 -16 -13 -30 -20 -14 -7 -81 -50 -150 -95 -69 -45 -186 -122 -260
-170 -74 -48 -154 -100 -177 -116 -23 -16 -44 -29 -47 -29 -3 0 -37 -22 -75
-49 -99 -71 -217 -137 -284 -160 -132 -46 -305 -33 -437 32 -80 39 -114 40
-100 1 5 -13 6 -24 2 -25 -4 0 1 -4 11 -8 10 -4 19 -11 20 -16 1 -10 41 -45
50 -45 3 0 27 -13 54 -30 67 -42 147 -60 263 -60 82 0 111 5 172 27 40 14 80
32 89 40 8 7 18 13 22 13 7 0 144 81 189 112 15 10 31 18 36 18 4 0 17 8 28
18 37 35 69 52 94 52 20 0 22 2 10 10 -12 8 -11 10 7 10 12 0 24 6 26 13 3 7
6 5 6 -5 1 -16 5 -15 39 5 20 12 38 24 40 27 1 4 16 4 32 2 23 -3 30 0 30 12
0 10 -6 13 -17 9 -10 -3 -7 3 7 12 14 10 31 25 38 33 6 9 20 17 29 18 44 7 63
16 63 29 0 8 -5 15 -11 15 -8 0 -8 4 1 15 9 10 17 12 30 5 13 -7 20 -6 23 3 4
9 8 8 17 -3 9 -11 13 -12 17 -2 2 6 12 12 20 12 9 0 23 8 32 18 9 11 30 25 46
33 23 11 30 21 30 43 1 16 9 34 19 42 20 14 41 9 31 -7 -12 -18 21 -8 35 11 8
11 24 20 35 20 11 0 28 9 38 20 15 18 15 21 2 26 -18 7 -10 24 11 24 8 0 14
-7 14 -16 0 -10 8 -6 25 14 14 17 25 35 25 41 0 22 50 62 192 152 209 133 233
152 262 211 23 45 26 65 26 148 0 167 -18 195 -213 323 -167 110 -285 187
-309 202 -24 14 -466 296 -585 373 -54 35 -105 66 -113 69 -8 4 -29 17 -46 30
-17 13 -35 23 -40 23 -5 0 -3 -4 4 -9z m-35 -171 c-3 -11 -10 -23 -16 -27 -5
-3 -8 -2 -5 3 3 5 8 17 11 27 9 24 16 22 10 -3z m-3 -60 c0 -5 -4 -10 -10 -10
-5 0 -10 5 -10 10 0 6 5 10 10 10 6 0 10 -4 10 -10z m38 -283 c-2 -23 -28 -58
-28 -38 0 12 22 61 26 61 2 0 3 -10 2 -23z m79 -539 c-3 -7 -5 -2 -5 12 0 14
2 19 5 13 2 -7 2 -19 0 -25z m1096 -68 c-12 -11 -27 -21 -34 -22 -6 -2 -23
-13 -37 -25 -13 -13 -29 -20 -35 -16 -6 4 -1 11 13 17 13 6 38 23 54 38 17 16
37 28 45 28 11 0 9 -5 -6 -20z m-1020 -25 c-3 -9 -8 -14 -10 -11 -3 3 -2 9 2
15 9 16 15 13 8 -4z m5 -45 c7 -11 11 -20 9 -20 -2 0 -12 9 -22 20 -10 11 -14
20 -9 20 5 0 15 -9 22 -20z m896 1 c3 -5 -1 -14 -8 -20 -12 -10 -13 -8 -9 8 6
23 9 25 17 12z m-34 -33 c0 -6 -3 -9 -6 -5 -3 3 -20 -7 -38 -24 -31 -30 -72
-47 -83 -35 -4 3 4 6 16 6 12 0 19 4 16 10 -3 6 -2 10 4 10 5 0 16 6 23 13 15
16 50 36 61 37 4 0 7 -5 7 -12z m-330 -388 c0 -5 -2 -10 -4 -10 -3 0 -8 5 -11
10 -3 6 -1 10 4 10 6 0 11 -4 11 -10z"/>
<path d="M3887 3324 c-9 -10 2 -24 19 -24 8 0 14 7 14 15 0 15 -21 21 -33 9z"/>
<path d="M3763 3243 c-15 -32 -8 -43 13 -21 11 11 13 21 8 31 -8 13 -11 11
-21 -10z"/>
<path d="M2612 3158 c3 -7 13 -15 23 -17 17 -3 17 -2 3 13 -20 19 -31 21 -26
4z"/>
<path d="M2700 3093 c0 -17 32 -33 55 -27 23 6 35 23 18 25 -5 0 -23 2 -40 3
-18 2 -33 2 -33 -1z"/>
<path d="M2786 3062 c-2 -4 4 -8 14 -8 10 0 16 4 14 8 -3 4 -9 8 -14 8 -5 0
-11 -4 -14 -8z"/>
<path d="M1710 2778 c0 -10 7 -18 16 -18 8 0 13 4 9 9 -3 5 -1 12 5 16 6 4 13
-7 17 -25 3 -18 12 -34 19 -37 8 -3 12 -9 9 -13 -3 -4 2 -10 10 -14 8 -3 15
-12 15 -21 0 -9 9 -15 26 -15 14 0 23 -4 19 -10 -3 -5 1 -10 10 -10 9 0 13 -4
10 -10 -3 -5 -1 -10 5 -10 6 0 9 -4 6 -9 -5 -8 42 -36 57 -33 4 1 7 -7 7 -18
0 -14 7 -20 23 -21 12 0 17 -3 11 -5 -15 -6 48 -68 86 -84 16 -7 30 -16 30
-21 0 -5 7 -9 15 -9 8 0 15 -9 15 -20 0 -15 7 -20 25 -20 14 0 25 -4 25 -10 0
-5 -4 -10 -10 -10 -5 0 -10 -4 -10 -10 0 -5 7 -10 15 -10 29 0 95 -49 95 -70
0 -5 9 -10 20 -10 13 0 20 -7 20 -20 0 -13 7 -20 20 -20 11 0 20 -5 20 -11 0
-19 58 -69 80 -69 12 0 28 -13 39 -30 10 -16 21 -27 25 -23 4 4 4 0 1 -8 -4
-11 1 -18 14 -22 12 -3 21 -12 21 -21 0 -9 7 -16 15 -16 8 0 15 -4 15 -10 0
-5 7 -10 15 -10 8 0 15 -6 15 -12 0 -7 11 -26 25 -42 14 -16 25 -35 25 -42 0
-7 9 -18 20 -24 11 -6 20 -17 20 -25 0 -9 10 -15 26 -15 14 0 23 -4 19 -10 -3
-5 1 -10 9 -10 11 0 16 -9 16 -30 0 -34 -19 -41 -27 -10 -3 11 -12 20 -19 20
-21 0 -17 -40 4 -41 10 0 12 -3 5 -6 -7 -2 -13 -9 -13 -14 0 -4 6 -6 14 -3 8
3 17 1 20 -4 3 -5 -2 -9 -12 -8 -11 1 -18 -8 -20 -24 -4 -22 -2 -23 14 -10 11
9 15 10 10 3 -4 -8 -2 -13 6 -13 9 0 9 -3 2 -8 -6 -4 -11 -22 -12 -39 -1 -32
1 -33 39 -33 21 0 39 -5 39 -11 0 -5 4 -7 10 -4 6 3 7 -1 4 -9 -5 -13 1 -16
30 -16 l36 0 0 -55 c0 -48 2 -55 20 -55 17 0 20 -7 20 -45 0 -38 3 -45 20 -45
13 0 20 -7 20 -20 0 -13 7 -20 20 -20 17 0 19 -5 15 -34 -5 -30 -2 -36 32 -57
21 -13 51 -29 68 -37 16 -7 32 -17 36 -23 3 -6 66 -16 140 -23 124 -11 130
-13 79 -19 -142 -18 -217 -3 -346 70 -142 78 -149 82 -159 96 -15 20 -87 59
-94 51 -3 -4 -1 -9 5 -11 7 -2 10 -12 7 -22 -3 -13 2 -20 21 -25 27 -7 35 -33
13 -42 -22 -8 -69 15 -74 36 -6 22 -19 26 -25 8 -6 -16 70 -71 87 -64 8 3 12
0 10 -7 -5 -12 188 -144 271 -185 70 -35 178 -55 269 -49 153 9 162 14 695
366 146 96 351 230 455 299 334 220 530 350 546 364 9 7 28 31 43 52 24 37 26
46 26 158 0 127 -10 163 -61 217 -20 22 -301 210 -355 239 -18 10 -44 -4 -205
-111 -101 -67 -270 -178 -374 -246 -105 -68 -269 -176 -365 -240 -96 -63 -200
-125 -230 -137 -127 -51 -294 -55 -414 -10 -34 13 -168 94 -301 181 -337 221
-623 407 -663 430 -9 6 -19 13 -22 16 -7 8 -229 149 -235 149 -2 0 -32 20 -67
44 -68 46 -98 54 -98 24z m1084 -1114 c5 -14 4 -15 -9 -4 -17 14 -19 20 -6 20
5 0 12 -7 15 -16z m86 -73 c0 -14 -29 -21 -36 -9 -4 6 -3 8 4 4 6 -3 13 -2 17
4 8 12 15 13 15 1z m20 -345 c0 -11 -19 -15 -25 -6 -3 5 1 10 9 10 9 0 16 -2
16 -4z"/>
<path d="M2470 1520 c0 -5 5 -10 11 -10 5 0 7 5 4 10 -3 6 -8 10 -11 10 -2 0
-4 -4 -4 -10z"/>
<path d="M2407 1459 c7 -7 15 -10 18 -7 3 3 -2 9 -12 12 -14 6 -15 5 -6 -5z"/>
<path d="M2728 1433 c6 -2 18 -2 25 0 6 3 1 5 -13 5 -14 0 -19 -2 -12 -5z"/>
<path d="M2856 1361 c-18 -7 -18 -8 -2 -14 27 -11 36 -8 36 8 0 16 -5 17 -34
6z"/>
<path d="M2691 1334 c0 -11 3 -14 6 -6 3 7 2 16 -1 19 -3 4 -6 -2 -5 -13z"/>
<path d="M2642 1304 c10 -10 20 -15 24 -12 3 4 -5 12 -18 18 -22 12 -22 12 -6
-6z"/>
</g>
</svg>
